<svg width="16" height="16" viewBox="0 0 16 16" fill="none" xmlns="http://www.w3.org/2000/svg">
<path d="M10.6668 6.66667C10.6668 5.19333 9.4735 4 8.00016 4C6.52683 4 5.3335 5.19333 5.3335 6.66667C5.3335 8.14 6.52683 9.33333 8.00016 9.33333C9.4735 9.33333 10.6668 8.14 10.6668 6.66667ZM6.66683 6.66667C6.66683 5.93333 7.26683 5.33333 8.00016 5.33333C8.7335 5.33333 9.3335 5.93333 9.3335 6.66667C9.3335 7.4 8.7335 8 8.00016 8C7.26683 8 6.66683 7.4 6.66683 6.66667Z" fill="#A6A6A6"/>
<path d="M7.61323 14.54C7.72657 14.62 7.86657 14.6667 7.9999 14.6667C8.13323 14.6667 8.27323 14.6267 8.38657 14.54C8.58657 14.3933 13.3532 10.96 13.3332 6.65999C13.3332 3.71999 10.9399 1.32666 7.9999 1.32666C5.0599 1.32666 2.66657 3.71999 2.66657 6.65999C2.64657 10.9533 7.41323 14.3933 7.61323 14.54ZM7.9999 2.66666C10.2066 2.66666 11.9999 4.45999 11.9999 6.66666C12.0132 9.62666 9.07323 12.2867 7.9999 13.16C6.92657 12.2867 3.98657 9.63333 3.9999 6.66666C3.9999 4.45999 5.79323 2.66666 7.9999 2.66666Z" fill="#A6A6A6"/>
</svg>
