<svg width="22" height="22" viewBox="0 0 22 22" fill="none" xmlns="http://www.w3.org/2000/svg">
<path d="M11 13.75C12.5188 13.75 13.75 12.5188 13.75 11C13.75 9.48122 12.5188 8.25 11 8.25C9.48122 8.25 8.25 9.48122 8.25 11C8.25 12.5188 9.48122 13.75 11 13.75Z" stroke="#A6A6A6" stroke-width="2"/>
<path d="M18.5058 10.0228C18.8614 10.4555 19.0393 10.6709 19.0393 11C19.0393 11.3291 18.8614 11.5445 18.5058 11.9772C17.2041 13.5575 14.3331 16.5 11.0001 16.5C7.6671 16.5 4.7961 13.5575 3.49444 11.9772C3.13877 11.5445 2.96094 11.3291 2.96094 11C2.96094 10.6709 3.13877 10.4555 3.49444 10.0228C4.7961 8.4425 7.6671 5.5 11.0001 5.5C14.3331 5.5 17.2041 8.4425 18.5058 10.0228Z" stroke="#A6A6A6" stroke-width="2"/>
</svg>
