<svg width="22" height="22" viewBox="0 0 22 22" fill="none" xmlns="http://www.w3.org/2000/svg">
<path d="M6.11185 7.00054C6.01388 8.04554 5.94513 9.89492 6.56216 10.6821C6.56216 10.6821 6.27169 8.65054 8.8756 6.10164C9.92403 5.07554 10.1664 3.67992 9.80028 2.6332C9.59232 2.04023 9.21247 1.55039 8.88247 1.20836C8.68997 1.00726 8.83778 0.675543 9.11794 0.687574C10.8126 0.763199 13.5592 1.23414 14.7262 4.16289C15.2384 5.44851 15.2762 6.77711 15.0322 8.12804C14.8775 8.99086 14.3275 10.909 15.5822 11.1444C16.4776 11.3129 16.9108 10.6013 17.105 10.0891C17.1858 9.87601 17.4659 9.82273 17.6172 9.99289C19.1297 11.7134 19.2586 13.7398 18.9458 15.4843C18.3408 18.8565 14.9256 21.3109 11.5328 21.3109C7.29435 21.3109 3.92044 18.8857 3.0456 14.496C2.69325 12.724 2.872 9.21773 5.60482 6.74273C5.80763 6.55711 6.13935 6.72211 6.11185 7.00054Z" fill="url(#paint0_radial_30_35)"/>
<path d="M13.0815 13.3065C11.5192 11.2956 12.2187 9.00104 12.602 8.08666C12.6536 7.96635 12.5161 7.85291 12.4078 7.92682C11.7357 8.38401 10.359 9.45994 9.71793 10.9742C8.84996 13.0212 8.91184 14.0232 9.42574 15.247C9.73512 15.9843 9.3759 16.1407 9.19543 16.1682C9.02012 16.1957 8.85856 16.0788 8.72965 15.9568C8.35888 15.6007 8.09463 15.1484 7.96652 14.6506C7.93902 14.544 7.7998 14.5148 7.73621 14.6024C7.25496 15.2676 7.00574 16.3349 6.99371 17.0895C6.9559 19.4218 8.88262 21.3124 11.2132 21.3124C14.1506 21.3124 16.2904 18.064 14.6026 15.3484C14.1128 14.5578 13.6521 14.0404 13.0815 13.3065Z" fill="url(#paint1_radial_30_35)"/>
<defs>
<radialGradient id="paint0_radial_30_35" cx="0" cy="0" r="1" gradientTransform="matrix(-12.1321 -0.0526535 -0.0865022 19.9064 10.6933 21.3643)" gradientUnits="userSpaceOnUse">
<stop offset="0.314" stop-color="#FF9800"/>
<stop offset="0.662" stop-color="#FF6D00"/>
<stop offset="0.972" stop-color="#F44336"/>
</radialGradient>
<radialGradient id="paint1_radial_30_35" cx="0" cy="0" r="1" gradientTransform="matrix(-0.128216 12.6934 9.55275 0.0964796 11.3748 9.29123)" gradientUnits="userSpaceOnUse">
<stop offset="0.214" stop-color="#FFF176"/>
<stop offset="0.328" stop-color="#FFF27D"/>
<stop offset="0.487" stop-color="#FFF48F"/>
<stop offset="0.672" stop-color="#FFF7AD"/>
<stop offset="0.793" stop-color="#FFF9C4"/>
<stop offset="0.822" stop-color="#FFF8BD" stop-opacity="0.804"/>
<stop offset="0.863" stop-color="#FFF6AB" stop-opacity="0.529"/>
<stop offset="0.91" stop-color="#FFF38D" stop-opacity="0.209"/>
<stop offset="0.941" stop-color="#FFF176" stop-opacity="0"/>
</radialGradient>
</defs>
</svg>
