<svg width="18" height="18" viewBox="0 0 18 18" fill="none" xmlns="http://www.w3.org/2000/svg">
<path d="M12.75 16.5C12.125 16.5 11.5938 16.2812 11.1562 15.8438C10.7188 15.4062 10.5 14.875 10.5 14.25C10.5 14.175 10.5188 14 10.5562 13.725L5.2875 10.65C5.0875 10.8375 4.85625 10.9845 4.59375 11.091C4.33125 11.1975 4.05 11.2505 3.75 11.25C3.125 11.25 2.59375 11.0312 2.15625 10.5938C1.71875 10.1562 1.5 9.625 1.5 9C1.5 8.375 1.71875 7.84375 2.15625 7.40625C2.59375 6.96875 3.125 6.75 3.75 6.75C4.05 6.75 4.33125 6.80325 4.59375 6.90975C4.85625 7.01625 5.0875 7.163 5.2875 7.35L10.5562 4.275C10.5312 4.1875 10.5157 4.10325 10.5097 4.02225C10.5037 3.94125 10.5005 3.8505 10.5 3.75C10.5 3.125 10.7188 2.59375 11.1562 2.15625C11.5938 1.71875 12.125 1.5 12.75 1.5C13.375 1.5 13.9062 1.71875 14.3438 2.15625C14.7812 2.59375 15 3.125 15 3.75C15 4.375 14.7812 4.90625 14.3438 5.34375C13.9062 5.78125 13.375 6 12.75 6C12.45 6 12.1687 5.94675 11.9062 5.84025C11.6438 5.73375 11.4125 5.587 11.2125 5.4L5.94375 8.475C5.96875 8.5625 5.9845 8.647 5.991 8.7285C5.9975 8.81 6.0005 8.9005 6 9C5.9995 9.0995 5.9965 9.19025 5.991 9.27225C5.9855 9.35425 5.96975 9.4385 5.94375 9.525L11.2125 12.6C11.4125 12.4125 11.6438 12.2657 11.9062 12.1597C12.1687 12.0537 12.45 12.0005 12.75 12C13.375 12 13.9062 12.2188 14.3438 12.6562C14.7812 13.0938 15 13.625 15 14.25C15 14.875 14.7812 15.4062 14.3438 15.8438C13.9062 16.2812 13.375 16.5 12.75 16.5Z" fill="#A6A6A6"/>
</svg>
